<?xml version="1.0" encoding="UTF-8"?>
<!DOCTYPE svg PUBLIC "-//W3C//DTD SVG 1.1//EN" "http://www.w3.org/Graphics/SVG/1.1/DTD/svg11.dtd">
<svg xmlns="http://www.w3.org/2000/svg" version="1.1" width="48px" height="48px" style="shape-rendering:geometricPrecision; text-rendering:geometricPrecision; image-rendering:optimizeQuality; fill-rule:evenodd; clip-rule:evenodd" xmlns:xlink="http://www.w3.org/1999/xlink">
<g><path style="opacity:0.967" fill="#fe3d00" d="M 43.5,22.5 C 38.7863,22.8266 34.1196,22.4933 29.5,21.5C 25.5,16.1667 21.5,16.1667 17.5,21.5C 12.8804,22.4933 8.21369,22.8266 3.5,22.5C 4.30499,10.0289 10.9717,3.69557 23.5,3.5C 36.0283,3.69557 42.695,10.0289 43.5,22.5 Z"/></g>
<g><path style="opacity:1" fill="#414e55" d="M 43.5,22.5 C 43.5,23.1667 43.5,23.8333 43.5,24.5C 38.8215,24.3342 34.1548,24.5008 29.5,25C 25.5,31 21.5,31 17.5,25C 12.8452,24.5008 8.17853,24.3342 3.5,24.5C 3.5,23.8333 3.5,23.1667 3.5,22.5C 8.21369,22.8266 12.8804,22.4933 17.5,21.5C 21.5,16.1667 25.5,16.1667 29.5,21.5C 34.1196,22.4933 38.7863,22.8266 43.5,22.5 Z"/></g>
<g><path style="opacity:1" fill="#ecedee" d="M 21.5,19.5 C 27.4877,19.664 28.821,22.164 25.5,27C 19.4034,27.1475 18.0701,24.6475 21.5,19.5 Z"/></g>
<g><path style="opacity:1" fill="#435259" d="M 22.5,21.5 C 25.8606,22.2032 26.1939,23.5365 23.5,25.5C 21.3576,24.5629 21.0243,23.2296 22.5,21.5 Z"/></g>
<g><path style="opacity:1" fill="#dfe4e7" d="M 3.5,24.5 C 8.17853,24.3342 12.8452,24.5008 17.5,25C 21.5,31 25.5,31 29.5,25C 34.1548,24.5008 38.8215,24.3342 43.5,24.5C 42.695,36.9711 36.0283,43.3044 23.5,43.5C 10.9717,43.3044 4.30499,36.9711 3.5,24.5 Z"/></g>
</svg>
